<svg width="201" height="200" viewBox="0 0 201 200" fill="none" xmlns="http://www.w3.org/2000/svg">
<path fill-rule="evenodd" clip-rule="evenodd" d="M84.0574 151.851C119.051 131.556 191.724 103.851 197.507 108.6C201.253 111.676 201.198 113.608 196.965 127.734C186.396 163.012 160.113 187.59 123.354 196.569C106.751 200.625 103.231 200.818 87.3571 198.54C53.5016 193.681 25.1117 173.669 10.5902 144.426C-19.6388 83.5514 17.7908 11.9938 85.5084 1.19766C117.823 -3.95414 150.783 7.69909 174.321 32.5975C192.292 51.6083 191.732 54.8999 169.843 58.8866C146.286 63.1774 127.647 56.464 120.027 40.9449C115.187 31.0872 109.178 28.5231 103.675 33.9681C99.2419 38.355 100.657 51.5591 106.468 60.0329C108.951 63.6531 110.524 65.6923 110.082 67.0977C109.448 69.1152 104.66 69.8263 92.443 72.0326C71.1677 75.8749 45.6407 84.4326 39.2636 89.8606C34.9744 93.5114 33.9399 95.8636 35.0714 99.3916C36.9734 105.321 39.9842 105.241 60.6651 98.7049C96.1685 87.485 98.0995 94.6226 63.4793 109.107C36.7063 120.308 27.294 127.433 31.1756 133.561C35.0919 139.745 41.4677 138.874 66.2251 128.778C92.7199 117.972 93.6449 117.759 95.3137 122.062C96.1206 124.143 90.8168 128.236 78.317 135.178C60.0128 145.344 55.3391 150.834 60.1288 156.545C64.1586 161.35 69.4772 160.307 84.0574 151.851ZM40.527 67.5081L43.8017 73.407L46.2549 72.7496L46.2352 69.1197L46.3011 69.102L48.099 72.2555L50.5522 71.5982L50.4387 64.8522L48.1666 65.461L48.4986 69.4661L48.4492 69.4794L46.586 65.8846L44.3797 66.4757L44.6053 70.5446L44.5559 70.5579L42.7991 66.8993L40.527 67.5081ZM51.1302 64.6669L52.8243 70.9894L55.0964 70.3805L54.2141 67.0876C54.1494 66.8461 54.1439 66.6226 54.1976 66.417C54.2506 66.2087 54.3517 66.0316 54.5009 65.8858C54.652 65.7365 54.8388 65.632 55.061 65.5725C55.179 65.5409 55.3229 65.5126 55.4927 65.4877C55.6625 65.4628 55.8088 65.4545 55.9316 65.4627L55.4121 63.524C55.3142 63.5208 55.214 63.5256 55.1116 63.5384C55.0111 63.5476 54.9115 63.5655 54.8127 63.592C54.4752 63.6824 54.2078 63.8644 54.0105 64.1378C53.8159 64.4105 53.7205 64.7846 53.7244 65.26L53.6585 65.2777L53.3365 64.0758L51.1302 64.6669ZM58.2209 69.4375C58.5663 69.4861 58.9406 69.4564 59.344 69.3483C59.6184 69.2748 59.8607 69.1746 60.0708 69.0477C60.2837 68.92 60.4598 68.7596 60.5992 68.5664C60.7413 68.3724 60.8439 68.1405 60.9069 67.8707L60.9563 67.8575L61.1945 68.7466L63.3185 68.1775L62.1582 63.8473C62.0795 63.5536 61.9395 63.3 61.7381 63.0863C61.5388 62.8691 61.2878 62.7011 60.9854 62.5821C60.6822 62.4604 60.3369 62.3956 59.9495 62.3877C59.5613 62.377 59.1409 62.4323 58.6881 62.5536C58.0597 62.722 57.562 62.9612 57.1951 63.2713C56.8275 63.5786 56.5776 63.9249 56.4456 64.3103C56.3156 64.6922 56.2883 65.0789 56.3638 65.4704L58.4548 64.9102C58.4301 64.708 58.4724 64.5422 58.5819 64.4129C58.6933 64.2801 58.8575 64.1846 59.0743 64.1266C59.2718 64.0736 59.4455 64.0741 59.5953 64.1281C59.745 64.1821 59.842 64.2914 59.8861 64.4561L59.8905 64.4725C59.9228 64.5933 59.9009 64.7036 59.8247 64.8034C59.7478 64.9005 59.6065 64.9986 59.4007 65.0979C59.197 65.1937 58.9218 65.3027 58.5751 65.425C58.2552 65.5372 57.9649 65.6723 57.7044 65.8304C57.4465 65.9877 57.2329 66.1729 57.0635 66.3859C56.8941 66.5989 56.7835 66.8447 56.7317 67.1233C56.6791 67.3992 56.6992 67.71 56.7918 68.0557C56.9043 68.4756 57.0848 68.7978 57.3332 69.0224C57.5816 69.247 57.8775 69.3854 58.2209 69.4375ZM60.1581 67.4802C60.0263 67.592 59.874 67.671 59.7011 67.7173C59.509 67.7688 59.3387 67.7644 59.1903 67.7042C59.0418 67.644 58.944 67.5261 58.8969 67.3505C58.8675 67.2407 58.8671 67.1349 58.8957 67.0332C58.9264 66.9279 58.9885 66.8304 59.0821 66.7406C59.1776 66.6473 59.3096 66.5634 59.4779 66.489C59.5647 66.451 59.6471 66.4127 59.725 66.3742C59.8057 66.3349 59.8805 66.2958 59.9494 66.2567C60.0211 66.2169 60.087 66.1772 60.1469 66.1376C60.2097 66.0973 60.2679 66.0567 60.3216 66.0158L60.4628 66.5427C60.5143 66.7348 60.51 66.9109 60.45 67.0711C60.39 67.2313 60.2927 67.3677 60.1581 67.4802ZM62.71 61.5641L65.0394 70.2575L67.3115 69.6487L66.3983 66.2405L66.4312 66.2317C66.5764 66.4222 66.7527 66.5808 66.9602 66.7076C67.1697 66.8308 67.4029 66.911 67.6599 66.948C67.9189 66.9815 68.1966 66.9586 68.4929 66.8792C68.943 66.7586 69.3243 66.53 69.637 66.1932C69.9525 65.8558 70.1584 65.4168 70.2547 64.8763C70.3538 64.335 70.3056 63.6994 70.11 62.9695C69.9056 62.2066 69.62 61.6185 69.2534 61.205C68.8894 60.7907 68.4883 60.5232 68.0501 60.4024C67.6146 60.2808 67.1883 60.276 66.7712 60.3877C66.4584 60.4715 66.1987 60.6 65.9921 60.773C65.7848 60.9432 65.6258 61.1402 65.5151 61.364C65.4038 61.585 65.3356 61.8135 65.3106 62.0496L65.2613 62.0629L64.9657 60.9597L62.71 61.5641ZM66.1131 64.8963C65.9732 64.6926 65.8621 64.4371 65.7798 64.1298C65.696 63.817 65.6641 63.5387 65.6841 63.2951C65.7061 63.0481 65.7754 62.8457 65.892 62.688C66.0105 62.5268 66.1741 62.4183 66.3827 62.3624C66.5912 62.3065 66.7844 62.3194 66.9622 62.4012C67.142 62.4795 67.3004 62.6209 67.4376 62.8253C67.5767 63.0262 67.6882 63.2831 67.772 63.596C67.8558 63.9088 67.8881 64.1884 67.8688 64.4347C67.8515 64.6776 67.785 64.8792 67.6692 65.0397C67.5553 65.1966 67.3941 65.3031 67.1856 65.3589C66.977 65.4148 66.7811 65.4026 66.5978 65.3223C66.4166 65.2385 66.255 65.0965 66.1131 64.8963ZM76.0128 59.1291L78.3343 58.507C78.15 57.9947 77.9005 57.563 77.5859 57.212C77.2712 56.861 76.908 56.5922 76.4962 56.4055C76.0837 56.216 75.6343 56.1085 75.1481 56.0829C74.6618 56.0573 74.1525 56.1158 73.6201 56.2585C72.8628 56.4614 72.2212 56.8113 71.6955 57.308C71.1691 57.802 70.8111 58.4199 70.6217 59.1619C70.4315 59.901 70.4622 60.7399 70.7136 61.6784C70.9636 62.6114 71.352 63.3529 71.8788 63.9029C72.4083 64.4522 73.0235 64.8108 73.7245 64.9789C74.4281 65.1462 75.1668 65.1262 75.9407 64.9189C76.5581 64.7534 77.0747 64.5136 77.4905 64.1992C77.9062 63.8849 78.2303 63.5304 78.4628 63.1357C78.6973 62.7376 78.8518 62.3315 78.9261 61.9175C78.9997 61.5007 79.0025 61.1103 78.9343 60.7462L76.6084 61.3518C76.6295 61.5403 76.6197 61.7179 76.5791 61.8846C76.5405 62.0479 76.4731 62.1969 76.3768 62.3315C76.2805 62.4661 76.156 62.5833 76.0033 62.683C75.8499 62.78 75.6676 62.8568 75.4563 62.9134C75.0858 63.0127 74.7457 63.0112 74.4359 62.9089C74.1255 62.8038 73.8539 62.5972 73.6213 62.2889C73.3907 61.9772 73.2063 61.5634 73.0681 61.0475C72.9372 60.559 72.8923 60.1225 72.9334 59.738C72.9772 59.3528 73.1058 59.0315 73.3193 58.7743C73.5355 58.5164 73.8356 58.336 74.2198 58.233C74.4393 58.1742 74.644 58.1532 74.8338 58.17C75.0228 58.184 75.1932 58.2325 75.3448 58.3154C75.4984 58.3948 75.6305 58.5036 75.741 58.6416C75.8543 58.7789 75.9449 58.9414 76.0128 59.1291ZM81.179 63.1756C81.4663 63.3368 81.7691 63.3748 82.0874 63.2895C82.2905 63.2351 82.4649 63.134 82.6105 62.9861C82.7555 62.8355 82.8583 62.6594 82.919 62.4579C82.9817 62.2528 82.9858 62.0429 82.9311 61.8282C82.8446 61.5161 82.6549 61.2801 82.3621 61.1204C82.072 60.9599 81.7761 60.92 81.4742 61.0009C81.1559 61.0862 80.9126 61.2705 80.7444 61.5538C80.579 61.8364 80.5395 62.1337 80.6261 62.4458C80.7094 62.7676 80.8937 63.0109 81.179 63.1756ZM85.6454 61.8817C86.2067 62.0225 86.8303 62.001 87.5164 61.8172C88.142 61.6495 88.6497 61.3929 89.0395 61.0473C89.4319 60.701 89.6965 60.2889 89.8332 59.8111C89.9691 59.3306 89.9666 58.8107 89.8256 58.2514L87.7181 58.8161C87.7604 59.0401 87.7611 59.2399 87.7199 59.4156C87.6808 59.5879 87.6074 59.7311 87.4997 59.8452C87.3913 59.9566 87.2535 60.0347 87.0861 60.0796C86.8885 60.1325 86.7005 60.1226 86.5222 60.0498C86.3431 59.9742 86.1819 59.8336 86.0386 59.6279C85.8945 59.4195 85.7761 59.1424 85.6835 58.7966C85.5908 58.4508 85.5552 58.1531 85.5765 57.9032C85.597 57.6507 85.6663 57.4483 85.7844 57.2961C85.9016 57.1411 86.0591 57.0372 86.2567 56.9842C86.5091 56.9166 86.7385 56.9492 86.9447 57.0822C87.1529 57.2117 87.3166 57.4384 87.4357 57.7624L89.5432 57.1977C89.3934 56.6496 89.1392 56.206 88.7807 55.8667C88.4214 55.5248 87.9843 55.3037 87.4692 55.2035C86.9561 55.0998 86.3895 55.131 85.7693 55.2972C85.0833 55.481 84.5328 55.7756 84.1179 56.1809C83.7022 56.5834 83.4299 57.0652 83.3008 57.6262C83.171 58.1845 83.1929 58.7875 83.3664 59.4351C83.5399 60.0827 83.8228 60.6172 84.2151 61.0385C84.6067 61.4571 85.0835 61.7382 85.6454 61.8817ZM92.6748 59.9982C93.2361 60.139 93.8597 60.1175 94.5457 59.9337C95.2318 59.7498 95.7826 59.4567 96.1983 59.0541C96.6132 58.6488 96.8855 58.167 97.0154 57.6087C97.1444 57.0477 97.1222 56.4434 96.9487 55.7957C96.7752 55.1481 96.4926 54.615 96.101 54.1964C95.7087 53.7751 95.232 53.494 94.6707 53.3532C94.1087 53.2097 93.4847 53.2298 92.7987 53.4137C92.1127 53.5975 91.5622 53.892 91.1473 54.2973C90.7316 54.6999 90.4593 55.1817 90.3302 55.7427C90.2004 56.301 90.2222 56.904 90.3958 57.5516C90.5693 58.1992 90.8522 58.7337 91.2445 59.155C91.6361 59.5736 92.1128 59.8547 92.6748 59.9982ZM94.5584 57.9229C94.453 58.0894 94.3043 58.1984 94.1122 58.2499C93.9091 58.3043 93.7176 58.2865 93.5376 58.1965C93.3576 58.1065 93.1972 57.9524 93.0564 57.7342C92.9156 57.5161 92.8011 57.2424 92.7129 56.9131C92.6239 56.581 92.5862 56.2867 92.5998 56.0302C92.6127 55.7708 92.6745 55.5572 92.7854 55.3893C92.8963 55.2213 93.0533 55.1101 93.2563 55.0557C93.4484 55.0043 93.6317 55.0243 93.8062 55.1157C93.9807 55.2072 94.1384 55.362 94.2792 55.5802C94.4193 55.7956 94.5338 56.0693 94.6228 56.4013C94.711 56.7306 94.7487 57.0249 94.7358 57.2843C94.7229 57.5436 94.6638 57.7565 94.5584 57.9229Z" fill="white"/>
</svg>
